<svg id="blob" viewBox="0 0 200 200">
  <path fill="#fed047" d="M31.9, -54.2C44.1, -48.2, 58.8, -45.3, 66.8 -36C74.7, -28.3, 76,-14.1,77.1,0.6C78.2,15.4,79.2,30.9,71.2,39.2C63.1,47.5,45.9,48.7,32.5,52C19.2,55.4,9.6,61,-2.1,64.6C-13.8,68.2,-27.5, 69.9,-40.8,66.4C-54,63,-66.8,54.4,-75.2,42.5C-83.6,30.6-87.7,15.3,-83.8,2.2C-80,-10.8,-68.1,-21.7,-59.2,-32.6C-50.2,-43.6,-44.1,-54.7,-34.7,-62.4C-25.3,-70.1,-12.7,-74.4,-1.4,-71.9C9.8,-69.4,19.6,-60.2,31.9,-54.2Z" transform="translate(100 100)"/>
</svg>